<svg width="1440" height="447" viewBox="0 0 1440 447" fill="none" xmlns="http://www.w3.org/2000/svg">
<path d="M0 26L30 19.5C60 13 120 -2.14763e-05 180 0.999979C240 1.99998 300 17 360 34.5C420 52 480 71.9999 540 76.6999C600 81.2999 660 70.7 720 68.8C780 67 840 74 900 67C960 60 1020 38.9999 1080 44.1999C1140 49.2999 1200 80.7 1260 89.3C1320 98 1380 84 1410 77L1440 70V448H1410C1380 448 1320 448 1260 448C1200 448 1140 448 1080 448C1020 448 960 448 900 448C840 448 780 448 720 448C660 448 600 448 540 448C480 448 420 448 360 448C300 448 240 448 180 448C120 448 60 448 30 448H0V26Z" fill="#457B9D"/>
<path d="M0 88.0001L30 92.3001C60 96.7001 120 105.3 180 99.5001C240 93.7001 300 73.3 360 66.2C420 59 480 65.0001 540 71.3001C600 77.7001 660 84.3001 720 88.3001C780 92.3001 840 93.7001 900 99.5001C960 105.3 1020 115.7 1080 113C1140 110.3 1200 94.7001 1260 89.5001C1320 84.3001 1380 89.7001 1410 92.3001L1440 95.0001V448H1410C1380 448 1320 448 1260 448C1200 448 1140 448 1080 448C1020 448 960 448 900 448C840 448 780 448 720 448C660 448 600 448 540 448C480 448 420 448 360 448C300 448 240 448 180 448C120 448 60 448 30 448H0V88.0001Z" fill="#3C6C8F"/>
<path d="M0 178L30 183.2C60 188.3 120 198.7 180 203C240 207.3 300 205.7 360 192.7C420 179.7 480 155.3 540 142C600 128.7 660 126.3 720 144.8C780 163.3 840 202.7 900 204.3C960 206 1020 170 1080 160.2C1140 150.3 1200 166.7 1260 168C1320 169.3 1380 155.7 1410 148.8L1440 142V448H1410C1380 448 1320 448 1260 448C1200 448 1140 448 1080 448C1020 448 960 448 900 448C840 448 780 448 720 448C660 448 600 448 540 448C480 448 420 448 360 448C300 448 240 448 180 448C120 448 60 448 30 448H0V178Z" fill="#345E81"/>
<path d="M0 231L30 240.8C60 250.7 120 270.3 180 280.3C240 290.3 300 290.7 360 291.2C420 291.7 480 292.3 540 291.5C600 290.7 660 288.3 720 274.2C780 260 840 234 900 235.8C960 237.7 1020 267.3 1080 275.2C1140 283 1200 269 1260 269.3C1320 269.7 1380 284.3 1410 291.7L1440 299V448H1410C1380 448 1320 448 1260 448C1200 448 1140 448 1080 448C1020 448 960 448 900 448C840 448 780 448 720 448C660 448 600 448 540 448C480 448 420 448 360 448C300 448 240 448 180 448C120 448 60 448 30 448H0V231Z" fill="#2C5073"/>
<path d="M0 328L30 325.7C60 323.3 120 318.7 180 312.7C240 306.7 300 299.3 360 291.2C420 283 480 274 540 284.7C600 295.3 660 325.7 720 332.2C780 338.7 840 321.3 900 323.5C960 325.7 1020 347.3 1080 345.7C1140 344 1200 319 1260 317C1320 315 1380 336 1410 346.5L1440 357V448H1410C1380 448 1320 448 1260 448C1200 448 1140 448 1080 448C1020 448 960 448 900 448C840 448 780 448 720 448C660 448 600 448 540 448C480 448 420 448 360 448C300 448 240 448 180 448C120 448 60 448 30 448H0V328Z" fill="#244265"/>
</svg>
